<?xml version="1.0" encoding="UTF-8"?>
<!DOCTYPE svg PUBLIC "-//W3C//DTD SVG 1.1//EN" "http://www.w3.org/Graphics/SVG/1.1/DTD/svg11.dtd">
<svg version="1.1" xmlns="http://www.w3.org/2000/svg" xmlns:xlink="http://www.w3.org/1999/xlink" x="0" y="0" width="679" height="107" viewBox="0, 0, 679, 107">
  <g id="Background">
    <rect x="0" y="0" width="679" height="107" fill="#FEFEFE" fill-opacity="0"/>
  </g>
  <defs>
    <clipPath id="Clip_1">
      <path d="M-0,36.026 L63.341,36.026 L63.341,106.323 L-0,106.323 z"/>
    </clipPath>
  </defs>
  <g id="Layer_1">
    <path d="M0,83.578 L58.033,47.556 L58.033,0 L0,36.026 z" fill="#6EBE53"/>
    <g>
      <g clip-path="url(#Clip_1)">
        <path d="M63.341,106.322 L-0.001,83.578 L-0.001,36.025 L63.341,58.785 z" fill="#9D9FA1"/>
      </g>
      <path d="M671.216,88.187 L671.888,88.187 C672.684,88.187 673.311,87.921 673.311,87.291 C673.311,86.724 672.897,86.36 672.004,86.36 C671.634,86.36 671.368,86.38 671.216,86.424 z M671.187,91.639 L669.76,91.639 L669.76,85.494 C670.323,85.421 671.109,85.304 672.125,85.304 C673.277,85.304 673.802,85.494 674.216,85.794 C674.586,86.047 674.849,86.499 674.849,87.098 C674.849,87.848 674.29,88.339 673.586,88.56 L673.586,88.642 C674.175,88.819 674.475,89.316 674.659,90.135 C674.849,91.064 674.999,91.405 675.115,91.639 L673.618,91.639 C673.425,91.405 673.311,90.88 673.131,90.135 C673.02,89.5 672.643,89.198 671.859,89.198 L671.187,89.198 z M667.396,88.45 C667.396,91.17 669.462,93.352 672.195,93.352 C674.849,93.386 676.877,91.17 676.877,88.483 C676.877,85.753 674.849,83.544 672.125,83.544 C669.462,83.544 667.396,85.753 667.396,88.45 M678.451,88.45 C678.451,91.898 675.676,94.623 672.147,94.623 C668.643,94.623 665.826,91.898 665.826,88.45 C665.826,85.008 668.643,82.31 672.195,82.31 C675.676,82.31 678.451,85.008 678.451,88.45" fill="#9D9FA1"/>
      <path d="M560.021,89.319 C550.466,89.319 539.488,86.515 539.488,64.643 C539.488,47.355 545.596,39.978 559.885,39.978 C569.442,39.978 580.402,42.797 580.402,64.764 C580.402,81.973 574.307,89.319 560.021,89.319 M560.021,34.596 C541.608,34.596 533.032,44.181 533.032,64.764 C533.032,85.272 541.567,94.829 559.885,94.829 C578.3,94.829 586.874,85.236 586.874,64.643 C586.874,44.144 578.345,34.596 560.021,34.596" fill="#9D9FA1"/>
      <path d="M506.852,61.08 C494.361,59.517 490.409,58.642 490.409,50.655 C490.409,43.97 492.918,40.351 506.147,40.351 C511.299,40.351 519.03,41.15 522.752,41.884 L521.391,36.521 C516.717,35.518 511.381,34.972 506.27,34.972 C486.708,34.972 484.076,43.025 484.076,50.909 C484.076,62.576 488.491,64.455 505.9,66.834 C516.275,68.315 520.863,69.302 520.863,77.28 C520.863,86.631 517.132,89.192 503.495,89.192 C497.603,89.192 490.064,87.853 485.851,86.699 L487.335,92.668 C492.295,93.834 498.574,94.579 503.495,94.579 C521.531,94.579 527.326,90.344 527.326,77.155 C527.326,65.764 522.211,63.146 506.852,61.08" fill="#9D9FA1"/>
      <path d="M605.236,36.695 L605.236,21.933 C605.236,13.391 607.031,10.519 619.44,7.38 L618.168,1.948 C601.834,5.809 598.898,10.515 598.898,21.561 L598.898,36.695 L587.994,36.695 L589.388,42.206 L598.898,42.206 L598.898,93.339 L605.236,93.339 L605.236,42.206 L621.645,42.206 L620.238,36.695 z" fill="#9D9FA1"/>
      <path d="M647.563,88.205 C642.239,88.205 641.793,83.535 641.793,78.757 L641.793,42.207 L654.962,42.207 L653.56,36.696 L641.793,36.696 L641.793,14.857 L635.587,16.581 L635.587,36.696 L625.662,36.696 L627.055,42.207 L635.587,42.207 L635.587,79.625 C635.587,89.402 639.074,93.959 646.559,93.959 C649.999,93.959 652.987,93.624 658.272,92.879 L657.696,87.249 C653.385,87.948 650.617,88.205 647.563,88.205" fill="#9D9FA1"/>
      <path d="M166.374,34.864 C158.079,34.864 149.264,38.997 145.874,40.773 L144.841,35.978 L135.749,35.978 L135.749,93.639 L147.874,93.639 L147.874,51.044 C151.859,49.143 159.421,46.462 164.906,46.462 C170.834,46.462 172.117,47.799 172.117,53.981 L172.117,93.639 L184.353,93.639 L184.353,52.548 C184.353,40.813 178.307,34.864 166.374,34.864" fill="#6EBE53"/>
      <path d="M211.205,36.311 L211.205,26.355 C211.205,20.474 211.205,18.896 223.081,16.085 L224.592,15.731 L221.971,4.533 L220.462,4.864 C203.792,8.527 198.97,13.272 198.97,26.016 L198.97,36.311 L188.854,36.311 L191.772,47.806 L198.97,47.806 L198.97,93.639 L211.205,93.639 L211.205,47.806 L227.718,47.806 L227.718,47.217 L224.969,36.311 z" fill="#6EBE53"/>
      <path d="M270.325,78.575 C266.333,80.473 258.769,83.156 253.289,83.156 C247.353,83.156 246.075,81.822 246.075,75.635 L246.075,35.979 L233.834,35.979 L233.834,77.071 C233.834,88.807 239.889,94.75 251.817,94.75 C260.124,94.75 268.931,90.617 272.322,88.848 L273.35,93.639 L282.441,93.639 L282.441,35.979 L270.325,35.979 z" fill="#6EBE53"/>
      <path d="M112.652,93.639 L124.89,93.639 L124.89,11.575 L112.652,15.082 z" fill="#6EBE53"/>
      <path d="M343.458,32.168 L355.694,28.713 L355.694,14.812 L343.458,18.078 z" fill="#6EBE53"/>
      <path d="M390.184,83.486 C382.538,83.486 375.066,82.03 375.066,64.643 C375.066,48.885 380.57,45.801 390.07,45.801 C397.724,45.801 405.195,47.265 405.195,64.752 C405.195,80.419 399.691,83.486 390.184,83.486 M390.184,34.425 C371.701,34.425 362.715,44.345 362.715,64.752 C362.715,85.084 371.664,94.971 390.07,94.971 C408.561,94.971 417.541,85.054 417.541,64.643 C417.541,44.313 408.592,34.425 390.184,34.425" fill="#6EBE53"/>
      <path d="M454.476,34.864 C446.18,34.864 437.367,38.997 433.972,40.773 L432.936,35.978 L423.845,35.978 L423.845,93.639 L435.965,93.639 L435.965,51.044 C439.49,49.371 447.118,46.462 453.005,46.462 C458.941,46.462 460.22,47.799 460.22,53.981 L460.22,93.639 L472.455,93.639 L472.455,52.548 C472.455,40.813 466.404,34.864 454.476,34.864" fill="#6EBE53"/>
      <path d="M343.458,93.639 L355.694,93.639 L355.694,34.936 L343.458,38.441 z" fill="#6EBE53"/>
      <path d="M314.492,58.424 C302.598,56.933 302.598,56.313 302.598,52.316 C302.598,48.855 302.598,46.355 313.432,46.355 C318.186,46.355 325.755,47.174 328.345,47.807 L332.936,49.326 L329.783,36.913 L329.443,36.831 C324.729,35.655 318.927,34.98 313.538,34.98 C297.729,34.98 290.366,40.565 290.366,52.548 C290.366,66.359 298.044,68.056 312.763,70.068 C322.96,71.519 323.35,72.454 323.35,76.189 C323.35,81.116 323.35,83.591 311.059,83.591 C305.436,83.591 297.432,82.036 294.604,81.004 L290.634,79.653 L293.863,92.668 L294.199,92.755 C299.036,94.086 305.81,94.971 311.059,94.971 C326.27,94.971 335.695,91.816 335.695,76.074 C335.695,63.485 328.861,60.353 314.492,58.424" fill="#6EBE53"/>
    </g>
  </g>
</svg>
