<?xml version="1.0" encoding="UTF-8"?>
<!DOCTYPE svg PUBLIC "-//W3C//DTD SVG 1.1//EN" "http://www.w3.org/Graphics/SVG/1.1/DTD/svg11.dtd">
<svg version="1.1" xmlns="http://www.w3.org/2000/svg" xmlns:xlink="http://www.w3.org/1999/xlink" x="0" y="0" width="369.775" height="269.75" viewBox="0, 0, 369.775, 269.75">
  <g id="Background">
    <rect x="0" y="0" width="369.775" height="269.75" fill="#000000" fill-opacity="0"/>
  </g>
  <defs>
    <linearGradient id="Gradient_1" gradientUnits="userSpaceOnUse" x1="69.423" y1="119.973" x2="299.939" y2="221.786">
      <stop offset="0" stop-color="#449ABE"/>
      <stop offset="1" stop-color="#C0538C"/>
    </linearGradient>
  </defs>
  <g id="Layer_1">
    <g>
      <path d="M165.3,233.939 C164.572,234.11 163.844,233.659 163.673,232.931 C163.502,232.203 163.953,231.475 164.681,231.304 L169.732,230.117 L169.106,227.453 L135.942,235.246 C135.945,235.256 135.949,235.264 135.952,235.275 L136.773,238.77 L139.551,240.491 C140.187,240.884 140.383,241.719 139.989,242.354 L138.686,244.458 L140.596,245.641 C141.231,246.034 141.428,246.869 141.034,247.504 C140.837,247.822 140.53,248.03 140.193,248.109 C139.856,248.188 139.488,248.139 139.171,247.942 L136.11,246.046 C135.475,245.653 135.278,244.818 135.672,244.183 L136.975,242.079 L134.871,240.776 C134.566,240.587 134.348,240.285 134.266,239.935 L133.317,235.895 C133.315,235.885 133.315,235.875 133.313,235.865 L113.965,240.206 C132.424,251.321 154.045,257.719 177.163,257.719 C201.036,257.719 223.314,250.896 242.161,239.101 L236.355,240.465 C235.627,240.636 234.899,240.185 234.728,239.457 L231.671,226.448 L204.879,232.744 C204.151,232.915 203.423,232.464 203.252,231.736 L200.828,221.421 L184.577,225.24 L184.887,226.558 L189.938,225.371 C190.666,225.2 191.394,225.651 191.565,226.379 C191.736,227.107 191.285,227.835 190.557,228.006 L185.506,229.193 L185.836,230.598 L192.424,229.05 C193.152,228.879 193.88,229.33 194.051,230.058 L197.147,243.235 L212.52,239.623 C213.248,239.452 213.976,239.903 214.147,240.631 C214.318,241.359 213.867,242.087 213.139,242.258 L196.449,246.18 C195.721,246.351 194.993,245.9 194.822,245.172 L191.726,231.995 L173.938,236.175 L175.169,241.416 L179.122,240.487 C179.85,240.316 180.578,240.767 180.749,241.495 L181.309,243.878 L186.689,242.614 C187.417,242.443 188.145,242.894 188.316,243.622 C188.487,244.35 188.036,245.078 187.308,245.249 L181.928,246.513 L182.493,248.919 L184.689,248.403 C185.417,248.232 186.145,248.683 186.316,249.411 C186.487,250.139 186.036,250.867 185.308,251.038 L181.794,251.864 C181.066,252.035 180.338,251.584 180.167,250.856 L178.422,243.432 L174.469,244.361 C173.741,244.532 173.013,244.081 172.842,243.353 L171.301,236.794 L160.54,239.323 C159.812,239.494 159.084,239.043 158.913,238.315 C158.742,237.587 159.193,236.859 159.921,236.688 L170.682,234.159 L170.352,232.754 L165.3,233.939 z" fill="#FFFFFF" fill-opacity="0.5"/>
      <path d="M259.435,226.496 C259.264,225.768 260.457,225.542 261.185,225.371 L261.744,223.884 C263.861,221.868 265.906,219.778 267.875,217.617 C267.527,217.444 268.531,217.717 268.435,217.309 C268.264,216.581 269.185,216.621 269.372,215.934 L270.601,214.52 C271.329,213.665 272.045,212.8 272.75,211.925 L272.486,210.803 L267.435,211.99 C266.707,212.161 265.979,211.71 265.808,210.982 C265.637,210.254 266.088,209.526 266.816,209.355 L271.867,208.168 L271.557,206.85 L266.506,208.037 C265.778,208.208 265.05,207.757 264.879,207.029 C264.708,206.301 265.159,205.573 265.887,205.402 L270.938,204.215 L270.172,200.956 L255.678,204.362 L256.318,207.085 C256.4,207.435 256.34,207.802 256.151,208.107 L254.848,210.211 L256.952,211.514 C257.587,211.907 257.784,212.742 257.39,213.377 L255.494,216.438 C255.297,216.756 254.99,216.964 254.653,217.043 C254.316,217.122 253.948,217.073 253.631,216.876 C252.996,216.483 252.799,215.648 253.193,215.013 L254.376,213.103 L252.272,211.8 C251.637,211.407 251.44,210.572 251.834,209.937 L253.555,207.159 L253.043,204.982 L245.576,206.737 L247.145,213.413 C247.316,214.141 246.865,214.869 246.137,215.04 L223.299,220.406 L224.464,225.363 L232.368,223.506 C233.096,223.335 233.824,223.786 233.995,224.514 L237.052,237.523 L246.715,235.252 C247.066,235.169 247.417,235.235 247.705,235.403 C251.301,232.871 254.753,230.153 258.05,227.259 C257.671,227.091 259.537,226.93 259.435,226.496 z" fill="#FFFFFF" fill-opacity="0.5"/>
      <path d="M271.426,197.858 C272.444,198.489 272.15,198.086 272.516,198.883 L273.901,204.778 L274.83,208.731 L274.909,209.066 L275.687,212.377 C273.15,212.399 274.309,212.356 272.207,212.473 L272.768,211.787 L272.504,210.665 L267.453,211.852 C266.726,212.023 265.997,211.572 265.826,210.844 C265.655,210.116 266.106,209.388 266.834,209.217 L271.885,208.03 L271.575,206.712 L266.524,207.899 C265.797,208.07 265.068,207.619 264.897,206.891 C264.726,206.163 265.177,205.435 265.905,205.264 L270.956,204.077 L270.19,200.818 L255.696,204.224 L256.336,206.947 C256.418,207.296 256.358,207.664 256.169,207.969 L254.866,210.073 L256.97,211.376 C257.606,211.769 257.802,212.604 257.408,213.239 L255.512,216.3 C255.315,216.618 255.008,216.826 254.671,216.905 C254.334,216.984 253.967,216.935 253.649,216.738 C253.013,216.345 252.817,215.51 253.211,214.875 L254.394,212.965 L252.29,211.662 C251.654,211.269 251.458,210.434 251.852,209.799 L253.573,207.021 L253.062,204.844 L245.595,206.599 L247.164,213.275 C247.335,214.003 246.884,214.731 246.156,214.902 L223.318,220.268 L224.483,225.225 L232.388,223.368 C233.115,223.197 233.844,223.648 234.015,224.376 L237.072,237.385 L246.735,235.114 C247.086,235.031 247.436,235.096 247.725,235.265 C248.035,235.446 248.274,235.746 248.362,236.122 C248.533,236.85 248.082,237.578 247.354,237.749 L242.18,238.965 L236.374,240.329 C235.647,240.5 234.918,240.049 234.747,239.321 L231.69,226.312 L204.898,232.608 C204.171,232.779 203.442,232.328 203.271,231.6 L200.847,221.285 L184.596,225.104 L184.906,226.422 L189.957,225.235 C190.684,225.064 191.413,225.515 191.584,226.243 C191.755,226.971 191.304,227.699 190.576,227.87 L185.525,229.057 L185.855,230.462 L192.443,228.914 C193.17,228.743 193.899,229.194 194.07,229.922 L197.166,243.099 L212.539,239.487 C213.266,239.316 213.995,239.767 214.166,240.495 C214.337,241.223 213.886,241.951 213.158,242.122 L196.468,246.044 C195.741,246.215 195.012,245.764 194.841,245.036 L191.745,231.859 L173.957,236.039 L175.188,241.28 L179.141,240.351 C179.868,240.18 180.597,240.631 180.768,241.359 L181.328,243.742 L186.708,242.478 C187.436,242.307 188.164,242.758 188.335,243.486 C188.506,244.214 188.055,244.942 187.327,245.113 L181.947,246.377 L182.512,248.783 L184.708,248.267 C184.91,248.22 185.111,248.225 185.302,248.266 C185.975,248.163 186.633,248.574 186.814,249.247 L188.986,258.591 L186.371,259.292 L184.468,251.104 L181.813,251.728 C181.086,251.899 180.357,251.448 180.186,250.72 L178.441,243.296 L174.488,244.225 C173.761,244.396 173.032,243.945 172.861,243.217 L171.32,236.658 L160.559,239.187 C159.832,239.358 159.103,238.907 158.932,238.179 C158.761,237.451 159.212,236.723 159.94,236.552 L170.701,234.023 L170.371,232.618 L165.32,233.805 C164.592,233.976 163.864,233.525 163.693,232.797 C163.522,232.069 163.973,231.341 164.701,231.17 L169.752,229.983 L169.126,227.319 L135.962,235.112 C135.965,235.122 135.97,235.131 135.972,235.141 L136.793,238.636 L139.571,240.357 C140.207,240.75 140.403,241.585 140.009,242.22 L138.706,244.324 L140.616,245.507 C141.252,245.9 141.448,246.735 141.054,247.37 C140.857,247.688 140.55,247.896 140.213,247.975 C139.876,248.054 139.509,248.005 139.191,247.808 L136.13,245.912 C135.494,245.519 135.298,244.684 135.692,244.049 L136.995,241.945 L134.891,240.642 C134.586,240.453 134.368,240.151 134.286,239.801 L133.337,235.761 C133.335,235.751 133.335,235.741 133.333,235.731 L113.985,240.072 C113.972,240.065 113.96,240.057 113.948,240.05 L113.941,240.051 C113.936,240.046 113.931,240.042 113.926,240.037 C112.891,239.412 111.867,238.772 110.852,238.118 C110.747,238.051 110.643,237.984 110.539,237.917 C110.53,237.912 110.512,237.907 110.505,237.902 L110.513,237.9 L169.825,224.375 C170.552,224.204 171.281,224.655 171.452,225.383 L172.697,230.682 L172.697,230.683 L173.337,233.405 L183.219,231.083 L182.579,228.361 L182.579,228.359 L181.65,224.407 C181.479,223.679 181.93,222.951 182.658,222.78 L201.544,218.342 C202.271,218.171 203,218.622 203.171,219.35 L204.246,223.927 L209.517,222.688 C210.244,222.517 210.973,222.968 211.144,223.696 C211.315,224.424 210.864,225.152 210.136,225.323 L204.865,226.561 L205.594,229.663 L221.847,225.844 L220.373,219.57 C220.202,218.842 220.653,218.114 221.381,217.943 L244.219,212.577 L242.65,205.901 C242.479,205.173 242.93,204.445 243.658,204.274 L253.76,201.9 L270.889,197.875 L271.426,197.858 z" fill="#FFFFFF"/>
    </g>
    <g>
      <path d="M260.846,29.086 C242.393,14.472 220.027,4.589 195.575,1.254 C189.56,0.433 183.421,0 177.181,0 C102.691,0 42.306,60.386 42.306,134.875 C42.306,209.364 102.691,269.75 177.181,269.75 C251.671,269.75 312.056,209.364 312.056,134.875 C312.056,91.993 292.04,53.789 260.846,29.086 z M177.181,264.083 C105.821,264.083 47.973,206.234 47.973,134.875 C47.973,63.516 105.821,5.667 177.181,5.667 C181.763,5.667 186.288,5.909 190.747,6.375 C217.186,9.134 241.249,19.869 260.498,36.126 C288.561,59.827 306.389,95.267 306.389,134.875 C306.389,206.235 248.54,264.083 177.181,264.083 z" fill="#FFFFFF" fill-opacity="0.5"/>
      <path d="M260.498,36.126 C241.249,19.868 217.186,9.133 190.747,6.375 C186.288,5.91 181.763,5.667 177.181,5.667 C105.821,5.667 47.973,63.516 47.973,134.875 C47.973,206.234 105.822,264.083 177.181,264.083 C248.54,264.083 306.389,206.234 306.389,134.875 C306.389,95.266 288.56,59.827 260.498,36.126 z M177.181,257.583 C109.411,257.583 54.473,202.645 54.473,134.875 C54.473,67.105 109.411,12.167 177.181,12.167 C180.405,12.167 183.601,12.293 186.762,12.537 C214.335,14.667 239.348,25.914 258.805,43.262 C284.011,65.736 299.889,98.449 299.889,134.875 C299.889,202.645 244.95,257.583 177.181,257.583 z" fill="#FFFFFF"/>
    </g>
    <path d="M27.416,250.533 C24.667,250.533 22.499,250.023 20.787,248.976 C18.485,247.539 16.883,245.047 15.994,241.547 C14.806,239.244 14.181,236.682 14.181,234.096 L14.181,220.192 C14.029,219.865 13.914,219.742 13.896,219.722 L13.896,219.722 C13.884,219.722 13.645,219.613 13.047,219.577 C12.946,219.57 12.851,219.568 12.751,219.568 C12.135,219.568 11.005,219.671 9.126,220.16 L0.344,222.442 L0,206.116 L6.94,204.31 C10.718,203.328 12.267,202.087 12.9,201.219 C13.566,200.321 14.002,198.866 14.18,196.984 L14.18,189.961 L14.077,185.104 C14.047,183.682 14.08,182.315 14.18,180.933 L14.18,179.379 C14.18,172.026 19.143,165.567 26.249,163.669 C26.461,163.607 26.621,163.563 26.783,163.525 L335.221,91.813 C336.44,91.53 337.685,91.387 338.925,91.387 C345.757,91.387 351.903,95.725 354.216,102.182 L354.377,102.631 L354.428,103.106 C354.562,104.362 354.64,105.565 354.665,106.783 L354.858,115.905 C354.882,117.062 354.97,118.091 355.121,118.963 C355.23,119.589 355.32,119.921 355.377,120.088 C355.63,120.835 355.852,121.074 355.877,121.1 L355.878,121.1 C355.889,121.1 356.127,121.21 356.731,121.246 C356.828,121.252 356.922,121.254 357.021,121.254 C357.638,121.254 358.768,121.151 360.649,120.662 L369.431,118.379 L369.775,134.707 L362.834,136.512 C359.057,137.494 357.507,138.736 356.873,139.604 C355.917,140.893 355.437,143.367 355.505,146.593 L355.697,155.718 C355.759,158.692 355.551,161.406 355.077,163.784 C354.415,167.106 353.215,169.811 351.509,171.823 C348.622,175.159 343.539,177.75 335.944,179.774 L335.51,179.895 L324.297,182.815 L324.288,182.486 L34.14,249.947 C32.872,250.241 31.545,250.395 30.286,250.371 C29.266,250.478 28.302,250.533 27.416,250.533 z" fill="#FFFFFF" fill-opacity="0.5"/>
    <path d="M164.626,65.61 L165.434,64.407 L164.224,63.897 L164.396,63.41 L165.643,63.805 L165.707,62.437 L166.234,62.437 L166.298,63.805 L167.545,63.41 L167.717,63.897 L166.507,64.407 L167.315,65.61 L166.866,65.922 L165.97,64.771 L165.074,65.922 L164.626,65.61 z" fill="#FFFFFF"/>
    <path d="M144.432,30.373 L145.492,28.793 L143.904,28.124 L144.13,27.485 L145.767,28.003 L145.851,26.208 L146.543,26.208 L146.627,28.003 L148.264,27.485 L148.49,28.124 L146.902,28.793 L147.962,30.373 L147.372,30.783 L146.196,29.272 L145.02,30.783 L144.432,30.373 z" fill="#FFFFFF"/>
    <path d="M129.441,55.66 L130.999,53.34 L128.666,52.357 L128.998,51.419 L131.403,52.18 L131.527,49.542 L132.544,49.542 L132.668,52.18 L135.073,51.419 L135.405,52.357 L133.072,53.34 L134.63,55.66 L133.763,56.262 L132.036,54.043 L130.309,56.262 L129.441,55.66 z" fill="#FFFFFF"/>
    <path d="M134.835,125.716 L135.643,124.513 L134.433,124.003 L134.605,123.516 L135.852,123.911 L135.916,122.543 L136.443,122.543 L136.507,123.911 L137.754,123.516 L137.926,124.003 L136.716,124.513 L137.524,125.716 L137.074,126.028 L136.178,124.877 L135.282,126.028 L134.835,125.716 z" fill="#FFFFFF"/>
    <path d="M136.646,76.852 C135.723,73.806 132.494,72.071 129.458,73.01 C126.412,73.933 124.691,77.151 125.615,80.197 C128.669,90.267 128.703,97.842 125.711,101.531 C124.467,103.063 122.742,103.854 121.174,104.259 L111.427,63.29 C110.69,60.194 107.583,58.281 104.487,59.017 C101.39,59.754 99.478,62.862 100.214,65.957 L112.842,119.036 C111.133,119.597 108.963,119.927 106.854,119.154 C102.335,117.495 98.503,110.936 96.064,100.683 C95.327,97.587 92.22,95.674 89.124,96.41 C86.028,97.146 84.115,100.255 84.851,103.35 C88.312,117.895 94.379,126.852 102.884,129.973 C106.984,131.477 111.074,131.343 114.59,130.507 C114.904,130.432 115.208,130.345 115.513,130.26 L118.724,143.755 C119.461,146.851 122.568,148.764 125.664,148.028 C128.761,147.291 130.673,144.183 129.937,141.088 L125.112,120.806 C125.11,120.797 125.108,120.789 125.106,120.78 L123.84,115.459 C127.53,114.525 131.52,112.588 134.545,108.933 C140.29,101.994 140.997,91.2 136.646,76.852 z" fill="#FFFFFF"/>
    <path d="M132.458,119.986 C132.152,118.725 132.927,117.447 134.188,117.148 C135.449,116.842 136.72,117.616 137.026,118.877 C138.038,123.047 139.594,125.716 141.409,126.392 C142.163,126.673 142.933,126.593 143.568,126.411 L138.51,110 C138.128,108.76 138.823,107.444 140.064,107.062 C141.304,106.68 142.62,107.376 143.002,108.616 L149.554,129.878 C150.271,129.721 151.101,129.388 151.682,128.68 C152.926,127.162 152.915,124.064 151.649,119.957 C151.267,118.717 151.962,117.401 153.203,117.019 C154.443,116.637 155.759,117.333 156.141,118.573 C157.936,124.4 157.659,128.802 155.317,131.66 C154.188,133.037 152.723,133.837 151.315,134.271 C151.189,134.31 151.064,134.342 150.94,134.375 L152.606,139.781 C152.988,141.021 152.293,142.337 151.052,142.719 C149.812,143.101 148.496,142.405 148.114,141.165 L145.61,133.041 C145.609,133.038 145.608,133.034 145.607,133.031 L144.95,130.9 C143.46,131.336 141.657,131.481 139.838,130.824 C136.382,129.574 133.899,125.928 132.458,119.986 z" fill="#FFFFFF"/>
    <path d="M73.983,103.637 L75.219,101.795 L73.368,101.015 L73.632,100.27 L75.54,100.874 L75.638,98.781 L76.445,98.781 L76.543,100.874 L78.451,100.27 L78.715,101.015 L76.863,101.795 L78.099,103.637 L77.411,104.115 L76.04,102.354 L74.669,104.115 L73.983,103.637 z" fill="#FFFFFF"/>
    <path d="M183.332,29.818 C183.332,51.51 200.917,69.095 222.609,69.095 C239.888,69.095 254.55,57.932 259.805,42.428 C240.348,25.08 215.334,13.833 187.762,11.703 C184.938,17.125 183.332,23.283 183.332,29.818 z" fill="#FFFFFF"/>
    <g>
      <path d="M336.921,99.118 L28.467,170.833 C24.493,171.757 21.681,175.298 21.681,179.378 L21.681,234.096 C21.681,239.744 26.94,243.92 32.441,242.641 L340.895,170.926 C344.869,170.002 347.681,166.461 347.681,162.381 L347.681,107.663 C347.681,102.016 342.422,97.839 336.921,99.118 z" fill="url(#Gradient_1)"/>
      <g>
        <path d="M365.539,123.524 L361.657,124.533 C359.545,125.082 357.822,125.32 356.491,125.238 C355.159,125.158 354.118,124.817 353.369,124.214 C352.62,123.612 352.028,122.664 351.59,121.371 C351.422,120.876 351.292,120.284 351.181,119.643 C351.002,118.608 350.889,117.406 350.86,115.99 L350.667,106.868 C350.641,105.657 350.561,104.564 350.451,103.532 C348.752,98.793 344.234,95.388 338.926,95.388 C337.99,95.388 337.049,95.496 336.128,95.71 L326.489,97.951 L41.628,164.18 L27.674,167.424 C27.541,167.455 27.413,167.498 27.282,167.533 C21.906,168.969 18.181,173.776 18.181,179.378 L18.181,181.079 C18.088,182.307 18.047,183.612 18.077,185.019 L18.181,189.961 L18.181,197.164 C17.944,199.914 17.262,202.053 16.132,203.577 C14.645,205.613 11.919,207.149 7.947,208.181 L4.065,209.19 L4.236,217.298 L8.118,216.289 C10.23,215.74 11.953,215.502 13.284,215.584 C14.616,215.664 15.657,216.005 16.406,216.608 C17.153,217.208 17.744,218.154 18.181,219.442 L18.181,234.096 C18.181,236.281 18.76,238.33 19.763,240.109 C20.376,242.827 21.411,244.65 22.875,245.564 C24.38,246.485 26.815,246.747 30.167,246.359 C30.257,246.361 30.345,246.373 30.436,246.373 C31.372,246.373 32.313,246.265 33.234,246.051 L328.165,177.48 L328.169,177.675 L334.503,176.025 C334.646,175.988 334.773,175.948 334.913,175.91 C341.63,174.12 346.156,171.897 348.458,169.237 C349.742,167.723 350.631,165.631 351.155,163.003 C351.566,160.94 351.757,158.554 351.699,155.803 L351.506,146.677 C351.417,142.433 352.129,139.287 353.643,137.245 C355.13,135.209 357.856,133.673 361.827,132.641 L365.709,131.632 L365.539,123.524 z M344.942,134.304 C343.701,135.252 342.726,136.316 342.014,137.497 C340.675,139.752 340.055,143.212 340.153,147.881 L340.337,156.582 C340.422,160.629 339.969,163.392 338.982,164.873 C337.995,166.354 336.035,167.475 333.108,168.236 L327.998,169.567 L328.089,173.904 L43.227,240.134 L43.125,235.305 L38.015,236.633 C36.664,236.986 35.465,237.155 34.418,237.143 C33.369,237.131 32.572,236.868 32.023,236.358 C31.012,235.368 30.463,232.894 30.381,228.932 L30.194,220.064 C30.095,215.395 29.337,212.291 27.919,210.755 C26.713,209.405 24.631,208.8 21.682,208.931 L21.682,208.464 C22.852,207.882 23.902,207.234 24.834,206.52 C26.075,205.572 27.05,204.508 27.762,203.327 C29.101,201.072 29.721,197.612 29.623,192.943 L29.439,184.242 C29.354,180.195 29.807,177.432 30.794,175.951 C31.781,174.47 33.74,173.349 36.668,172.588 L41.778,171.257 L41.704,167.757 L326.566,101.527 L326.651,105.519 L331.761,104.191 C333.112,103.838 334.311,103.669 335.358,103.681 C336.407,103.693 337.205,103.956 337.754,104.466 C338.764,105.456 339.314,107.93 339.396,111.892 L339.583,120.76 C339.682,125.429 340.44,128.533 341.858,130.069 C343.006,131.354 344.954,131.958 347.681,131.902 L347.681,132.581 C346.679,133.106 345.76,133.677 344.942,134.304 z" fill="#FFFFFF"/>
      </g>
    </g>
    <g>
      <text transform="matrix(1.002, -0.23, -0.007, 1, 98.63, 190.604)">
        <tspan x="-44.845" y="16.5" font-family="Hack-Bold" font-size="49.105" fill="#FFFFFF">CSS</tspan>
      </text>
      <text transform="matrix(1.002, -0.23, -0.007, 1, 231.891, 159.94)">
        <tspan x="-89.191" y="16.5" font-family="Hack-Bold" font-size="49.105" fill="#FFFFFF">DAY.io</tspan>
      </text>
    </g>
  </g>
</svg>
