<?xml version="1.0" encoding="UTF-8"?>
<!DOCTYPE svg PUBLIC "-//W3C//DTD SVG 1.1//EN" "http://www.w3.org/Graphics/SVG/1.1/DTD/svg11.dtd">
<svg version="1.1" xmlns="http://www.w3.org/2000/svg" xmlns:xlink="http://www.w3.org/1999/xlink" x="0" y="0" width="369.775" height="330" viewBox="0, 0, 369.775, 330">
  <g id="Background">
    <rect x="0" y="0" width="369.775" height="330" fill="#000000" fill-opacity="0"/>
  </g>
  <defs>
    <linearGradient id="Gradient_1" gradientUnits="userSpaceOnUse" x1="69.423" y1="119.973" x2="299.939" y2="221.786">
      <stop offset="0" stop-color="#449ABE"/>
      <stop offset="1" stop-color="#C0538C"/>
    </linearGradient>
  </defs>
  <g id="Layer_1">
    <g>
      <path d="M165.3,233.939 C164.572,234.11 163.844,233.659 163.673,232.931 C163.502,232.203 163.953,231.475 164.681,231.304 L169.732,230.117 L169.106,227.453 L135.942,235.246 C135.945,235.256 135.949,235.264 135.952,235.275 L136.773,238.77 L139.551,240.491 C140.187,240.884 140.383,241.719 139.989,242.354 L138.686,244.458 L140.596,245.641 C141.231,246.034 141.428,246.869 141.034,247.504 C140.837,247.822 140.53,248.03 140.193,248.109 C139.856,248.188 139.488,248.139 139.171,247.942 L136.11,246.046 C135.475,245.653 135.278,244.818 135.672,244.183 L136.975,242.079 L134.871,240.776 C134.566,240.587 134.348,240.285 134.266,239.935 L133.317,235.895 C133.315,235.885 133.315,235.875 133.313,235.865 L113.965,240.206 C132.424,251.321 154.045,257.719 177.163,257.719 C201.036,257.719 223.314,250.896 242.161,239.101 L236.355,240.465 C235.627,240.636 234.899,240.185 234.728,239.457 L231.671,226.448 L204.879,232.744 C204.151,232.915 203.423,232.464 203.252,231.736 L200.828,221.421 L184.577,225.24 L184.887,226.558 L189.938,225.371 C190.666,225.2 191.394,225.651 191.565,226.379 C191.736,227.107 191.285,227.835 190.557,228.006 L185.506,229.193 L185.836,230.598 L192.424,229.05 C193.152,228.879 193.88,229.33 194.051,230.058 L197.147,243.235 L212.52,239.623 C213.248,239.452 213.976,239.903 214.147,240.631 C214.318,241.359 213.867,242.087 213.139,242.258 L196.449,246.18 C195.721,246.351 194.993,245.9 194.822,245.172 L191.726,231.995 L173.938,236.175 L175.169,241.416 L179.122,240.487 C179.85,240.316 180.578,240.767 180.749,241.495 L181.309,243.878 L186.689,242.614 C187.417,242.443 188.145,242.894 188.316,243.622 C188.487,244.35 188.036,245.078 187.308,245.249 L181.928,246.513 L182.493,248.919 L184.689,248.403 C185.417,248.232 186.145,248.683 186.316,249.411 C186.487,250.139 186.036,250.867 185.308,251.038 L181.794,251.864 C181.066,252.035 180.338,251.584 180.167,250.856 L178.422,243.432 L174.469,244.361 C173.741,244.532 173.013,244.081 172.842,243.353 L171.301,236.794 L160.54,239.323 C159.812,239.494 159.084,239.043 158.913,238.315 C158.742,237.587 159.193,236.859 159.921,236.688 L170.682,234.159 L170.352,232.754 L165.3,233.939 z" fill="#FFFFFF" fill-opacity="0.5"/>
      <path d="M259.435,226.496 C259.264,225.768 260.457,225.542 261.185,225.371 L261.744,223.884 C263.861,221.868 265.906,219.778 267.875,217.617 C267.527,217.444 268.531,217.717 268.435,217.309 C268.264,216.581 269.185,216.621 269.372,215.934 L270.601,214.52 C271.329,213.665 272.045,212.8 272.75,211.925 L272.486,210.803 L267.435,211.99 C266.707,212.161 265.979,211.71 265.808,210.982 C265.637,210.254 266.088,209.526 266.816,209.355 L271.867,208.168 L271.557,206.85 L266.506,208.037 C265.778,208.208 265.05,207.757 264.879,207.029 C264.708,206.301 265.159,205.573 265.887,205.402 L270.938,204.215 L270.172,200.956 L255.678,204.362 L256.318,207.085 C256.4,207.435 256.34,207.802 256.151,208.107 L254.848,210.211 L256.952,211.514 C257.587,211.907 257.784,212.742 257.39,213.377 L255.494,216.438 C255.297,216.756 254.99,216.964 254.653,217.043 C254.316,217.122 253.948,217.073 253.631,216.876 C252.996,216.483 252.799,215.648 253.193,215.013 L254.376,213.103 L252.272,211.8 C251.637,211.407 251.44,210.572 251.834,209.937 L253.555,207.159 L253.043,204.982 L245.576,206.737 L247.145,213.413 C247.316,214.141 246.865,214.869 246.137,215.04 L223.299,220.406 L224.464,225.363 L232.368,223.506 C233.096,223.335 233.824,223.786 233.995,224.514 L237.052,237.523 L246.715,235.252 C247.066,235.169 247.417,235.235 247.705,235.403 C251.301,232.871 254.753,230.153 258.05,227.259 C257.671,227.091 259.537,226.93 259.435,226.496 z" fill="#FFFFFF" fill-opacity="0.5"/>
      <path d="M271.426,197.858 C272.444,198.489 272.15,198.086 272.516,198.883 L273.901,204.778 L274.83,208.731 L274.909,209.066 L275.687,212.377 C273.15,212.399 274.309,212.356 272.207,212.473 L272.768,211.787 L272.504,210.665 L267.453,211.852 C266.726,212.023 265.997,211.572 265.826,210.844 C265.655,210.116 266.106,209.388 266.834,209.217 L271.885,208.03 L271.575,206.712 L266.524,207.899 C265.797,208.07 265.068,207.619 264.897,206.891 C264.726,206.163 265.177,205.435 265.905,205.264 L270.956,204.077 L270.19,200.818 L255.696,204.224 L256.336,206.947 C256.418,207.296 256.358,207.664 256.169,207.969 L254.866,210.073 L256.97,211.376 C257.606,211.769 257.802,212.604 257.408,213.239 L255.512,216.3 C255.315,216.618 255.008,216.826 254.671,216.905 C254.334,216.984 253.967,216.935 253.649,216.738 C253.013,216.345 252.817,215.51 253.211,214.875 L254.394,212.965 L252.29,211.662 C251.654,211.269 251.458,210.434 251.852,209.799 L253.573,207.021 L253.062,204.844 L245.595,206.599 L247.164,213.275 C247.335,214.003 246.884,214.731 246.156,214.902 L223.318,220.268 L224.483,225.225 L232.388,223.368 C233.115,223.197 233.844,223.648 234.015,224.376 L237.072,237.385 L246.735,235.114 C247.086,235.031 247.436,235.096 247.725,235.265 C248.035,235.446 248.274,235.746 248.362,236.122 C248.533,236.85 248.082,237.578 247.354,237.749 L242.18,238.965 L236.374,240.329 C235.647,240.5 234.918,240.049 234.747,239.321 L231.69,226.312 L204.898,232.608 C204.171,232.779 203.442,232.328 203.271,231.6 L200.847,221.285 L184.596,225.104 L184.906,226.422 L189.957,225.235 C190.684,225.064 191.413,225.515 191.584,226.243 C191.755,226.971 191.304,227.699 190.576,227.87 L185.525,229.057 L185.855,230.462 L192.443,228.914 C193.17,228.743 193.899,229.194 194.07,229.922 L197.166,243.099 L212.539,239.487 C213.266,239.316 213.995,239.767 214.166,240.495 C214.337,241.223 213.886,241.951 213.158,242.122 L196.468,246.044 C195.741,246.215 195.012,245.764 194.841,245.036 L191.745,231.859 L173.957,236.039 L175.188,241.28 L179.141,240.351 C179.868,240.18 180.597,240.631 180.768,241.359 L181.328,243.742 L186.708,242.478 C187.436,242.307 188.164,242.758 188.335,243.486 C188.506,244.214 188.055,244.942 187.327,245.113 L181.947,246.377 L182.512,248.783 L184.708,248.267 C184.91,248.22 185.111,248.225 185.302,248.266 C185.975,248.163 186.633,248.574 186.814,249.247 L188.986,258.591 L186.371,259.292 L184.468,251.104 L181.813,251.728 C181.086,251.899 180.357,251.448 180.186,250.72 L178.441,243.296 L174.488,244.225 C173.761,244.396 173.032,243.945 172.861,243.217 L171.32,236.658 L160.559,239.187 C159.832,239.358 159.103,238.907 158.932,238.179 C158.761,237.451 159.212,236.723 159.94,236.552 L170.701,234.023 L170.371,232.618 L165.32,233.805 C164.592,233.976 163.864,233.525 163.693,232.797 C163.522,232.069 163.973,231.341 164.701,231.17 L169.752,229.983 L169.126,227.319 L135.962,235.112 C135.965,235.122 135.97,235.131 135.972,235.141 L136.793,238.636 L139.571,240.357 C140.207,240.75 140.403,241.585 140.009,242.22 L138.706,244.324 L140.616,245.507 C141.252,245.9 141.448,246.735 141.054,247.37 C140.857,247.688 140.55,247.896 140.213,247.975 C139.876,248.054 139.509,248.005 139.191,247.808 L136.13,245.912 C135.494,245.519 135.298,244.684 135.692,244.049 L136.995,241.945 L134.891,240.642 C134.586,240.453 134.368,240.151 134.286,239.801 L133.337,235.761 C133.335,235.751 133.335,235.741 133.333,235.731 L113.985,240.072 C113.972,240.065 113.96,240.057 113.948,240.05 L113.941,240.051 C113.936,240.046 113.931,240.042 113.926,240.037 C112.891,239.412 111.867,238.772 110.852,238.118 C110.747,238.051 110.643,237.984 110.539,237.917 C110.53,237.912 110.512,237.907 110.505,237.902 L110.513,237.9 L169.825,224.375 C170.552,224.204 171.281,224.655 171.452,225.383 L172.697,230.682 L172.697,230.683 L173.337,233.405 L183.219,231.083 L182.579,228.361 L182.579,228.359 L181.65,224.407 C181.479,223.679 181.93,222.951 182.658,222.78 L201.544,218.342 C202.271,218.171 203,218.622 203.171,219.35 L204.246,223.927 L209.517,222.688 C210.244,222.517 210.973,222.968 211.144,223.696 C211.315,224.424 210.864,225.152 210.136,225.323 L204.865,226.561 L205.594,229.663 L221.847,225.844 L220.373,219.57 C220.202,218.842 220.653,218.114 221.381,217.943 L244.219,212.577 L242.65,205.901 C242.479,205.173 242.93,204.445 243.658,204.274 L253.76,201.9 L270.889,197.875 L271.426,197.858 z" fill="#FFFFFF"/>
    </g>
    <g>
      <path d="M260.846,29.086 C242.393,14.472 220.027,4.589 195.575,1.254 C189.56,0.433 183.421,0 177.181,0 C102.691,0 42.306,60.386 42.306,134.875 C42.306,209.364 102.691,269.75 177.181,269.75 C251.671,269.75 312.056,209.364 312.056,134.875 C312.056,91.993 292.04,53.789 260.846,29.086 z M177.181,264.083 C105.821,264.083 47.973,206.234 47.973,134.875 C47.973,63.516 105.821,5.667 177.181,5.667 C181.763,5.667 186.288,5.909 190.747,6.375 C217.186,9.134 241.249,19.869 260.498,36.126 C288.561,59.827 306.389,95.267 306.389,134.875 C306.389,206.235 248.54,264.083 177.181,264.083 z" fill="#FFFFFF" fill-opacity="0.5"/>
      <path d="M260.498,36.126 C241.249,19.868 217.186,9.133 190.747,6.375 C186.288,5.91 181.763,5.667 177.181,5.667 C105.821,5.667 47.973,63.516 47.973,134.875 C47.973,206.234 105.822,264.083 177.181,264.083 C248.54,264.083 306.389,206.234 306.389,134.875 C306.389,95.266 288.56,59.827 260.498,36.126 z M177.181,257.583 C109.411,257.583 54.473,202.645 54.473,134.875 C54.473,67.105 109.411,12.167 177.181,12.167 C180.405,12.167 183.601,12.293 186.762,12.537 C214.335,14.667 239.348,25.914 258.805,43.262 C284.011,65.736 299.889,98.449 299.889,134.875 C299.889,202.645 244.95,257.583 177.181,257.583 z" fill="#FFFFFF"/>
    </g>
    <path d="M27.416,250.533 C24.667,250.533 22.499,250.023 20.787,248.976 C18.485,247.539 16.883,245.047 15.994,241.547 C14.806,239.244 14.181,236.682 14.181,234.096 L14.181,220.192 C14.029,219.865 13.914,219.742 13.896,219.722 L13.896,219.722 C13.884,219.722 13.645,219.613 13.047,219.577 C12.946,219.57 12.851,219.568 12.751,219.568 C12.135,219.568 11.005,219.671 9.126,220.16 L0.344,222.442 L0,206.116 L6.94,204.31 C10.718,203.328 12.267,202.087 12.9,201.219 C13.566,200.321 14.002,198.866 14.18,196.984 L14.18,189.961 L14.077,185.104 C14.047,183.682 14.08,182.315 14.18,180.933 L14.18,179.379 C14.18,172.026 19.143,165.567 26.249,163.669 C26.461,163.607 26.621,163.563 26.783,163.525 L335.221,91.813 C336.44,91.53 337.685,91.387 338.925,91.387 C345.757,91.387 351.903,95.725 354.216,102.182 L354.377,102.631 L354.428,103.106 C354.562,104.362 354.64,105.565 354.665,106.783 L354.858,115.905 C354.882,117.062 354.97,118.091 355.121,118.963 C355.23,119.589 355.32,119.921 355.377,120.088 C355.63,120.835 355.852,121.074 355.877,121.1 L355.878,121.1 C355.889,121.1 356.127,121.21 356.731,121.246 C356.828,121.252 356.922,121.254 357.021,121.254 C357.638,121.254 358.768,121.151 360.649,120.662 L369.431,118.379 L369.775,134.707 L362.834,136.512 C359.057,137.494 357.507,138.736 356.873,139.604 C355.917,140.893 355.437,143.367 355.505,146.593 L355.697,155.718 C355.759,158.692 355.551,161.406 355.077,163.784 C354.415,167.106 353.215,169.811 351.509,171.823 C348.622,175.159 343.539,177.75 335.944,179.774 L335.51,179.895 L324.297,182.815 L324.288,182.486 L34.14,249.947 C32.872,250.241 31.545,250.395 30.286,250.371 C29.266,250.478 28.302,250.533 27.416,250.533 z" fill="#FFFFFF" fill-opacity="0.5"/>
    <path d="M164.626,65.61 L165.434,64.407 L164.224,63.897 L164.396,63.41 L165.643,63.805 L165.707,62.437 L166.234,62.437 L166.298,63.805 L167.545,63.41 L167.717,63.897 L166.507,64.407 L167.315,65.61 L166.866,65.922 L165.97,64.771 L165.074,65.922 L164.626,65.61 z" fill="#FFFFFF"/>
    <path d="M144.432,30.373 L145.492,28.793 L143.904,28.124 L144.13,27.485 L145.767,28.003 L145.851,26.208 L146.543,26.208 L146.627,28.003 L148.264,27.485 L148.49,28.124 L146.902,28.793 L147.962,30.373 L147.372,30.783 L146.196,29.272 L145.02,30.783 L144.432,30.373 z" fill="#FFFFFF"/>
    <path d="M129.441,55.66 L130.999,53.34 L128.666,52.357 L128.998,51.419 L131.403,52.18 L131.527,49.542 L132.544,49.542 L132.668,52.18 L135.073,51.419 L135.405,52.357 L133.072,53.34 L134.63,55.66 L133.763,56.262 L132.036,54.043 L130.309,56.262 L129.441,55.66 z" fill="#FFFFFF"/>
    <path d="M134.835,125.716 L135.643,124.513 L134.433,124.003 L134.605,123.516 L135.852,123.911 L135.916,122.543 L136.443,122.543 L136.507,123.911 L137.754,123.516 L137.926,124.003 L136.716,124.513 L137.524,125.716 L137.074,126.028 L136.178,124.877 L135.282,126.028 L134.835,125.716 z" fill="#FFFFFF"/>
    <path d="M136.646,76.852 C135.723,73.806 132.494,72.071 129.458,73.01 C126.412,73.933 124.691,77.151 125.615,80.197 C128.669,90.267 128.703,97.842 125.711,101.531 C124.467,103.063 122.742,103.854 121.174,104.259 L111.427,63.29 C110.69,60.194 107.583,58.281 104.487,59.017 C101.39,59.754 99.478,62.862 100.214,65.957 L112.842,119.036 C111.133,119.597 108.963,119.927 106.854,119.154 C102.335,117.495 98.503,110.936 96.064,100.683 C95.327,97.587 92.22,95.674 89.124,96.41 C86.028,97.146 84.115,100.255 84.851,103.35 C88.312,117.895 94.379,126.852 102.884,129.973 C106.984,131.477 111.074,131.343 114.59,130.507 C114.904,130.432 115.208,130.345 115.513,130.26 L118.724,143.755 C119.461,146.851 122.568,148.764 125.664,148.028 C128.761,147.291 130.673,144.183 129.937,141.088 L125.112,120.806 C125.11,120.797 125.108,120.789 125.106,120.78 L123.84,115.459 C127.53,114.525 131.52,112.588 134.545,108.933 C140.29,101.994 140.997,91.2 136.646,76.852 z" fill="#FFFFFF"/>
    <path d="M132.458,119.986 C132.152,118.725 132.927,117.447 134.188,117.148 C135.449,116.842 136.72,117.616 137.026,118.877 C138.038,123.047 139.594,125.716 141.409,126.392 C142.163,126.673 142.933,126.593 143.568,126.411 L138.51,110 C138.128,108.76 138.823,107.444 140.064,107.062 C141.304,106.68 142.62,107.376 143.002,108.616 L149.554,129.878 C150.271,129.721 151.101,129.388 151.682,128.68 C152.926,127.162 152.915,124.064 151.649,119.957 C151.267,118.717 151.962,117.401 153.203,117.019 C154.443,116.637 155.759,117.333 156.141,118.573 C157.936,124.4 157.659,128.802 155.317,131.66 C154.188,133.037 152.723,133.837 151.315,134.271 C151.189,134.31 151.064,134.342 150.94,134.375 L152.606,139.781 C152.988,141.021 152.293,142.337 151.052,142.719 C149.812,143.101 148.496,142.405 148.114,141.165 L145.61,133.041 C145.609,133.038 145.608,133.034 145.607,133.031 L144.95,130.9 C143.46,131.336 141.657,131.481 139.838,130.824 C136.382,129.574 133.899,125.928 132.458,119.986 z" fill="#FFFFFF"/>
    <path d="M73.983,103.637 L75.219,101.795 L73.368,101.015 L73.632,100.27 L75.54,100.874 L75.638,98.781 L76.445,98.781 L76.543,100.874 L78.451,100.27 L78.715,101.015 L76.863,101.795 L78.099,103.637 L77.411,104.115 L76.04,102.354 L74.669,104.115 L73.983,103.637 z" fill="#FFFFFF"/>
    <path d="M183.332,29.818 C183.332,51.51 200.917,69.095 222.609,69.095 C239.888,69.095 254.55,57.932 259.805,42.428 C240.348,25.08 215.334,13.833 187.762,11.703 C184.938,17.125 183.332,23.283 183.332,29.818 z" fill="#FFFFFF"/>
    <g>
      <path d="M336.921,99.118 L28.467,170.833 C24.493,171.757 21.681,175.298 21.681,179.378 L21.681,234.096 C21.681,239.744 26.94,243.92 32.441,242.641 L340.895,170.926 C344.869,170.002 347.681,166.461 347.681,162.381 L347.681,107.663 C347.681,102.016 342.422,97.839 336.921,99.118 z" fill="url(#Gradient_1)"/>
      <g>
        <path d="M365.539,123.524 L361.657,124.533 C359.545,125.082 357.822,125.32 356.491,125.238 C355.159,125.158 354.118,124.817 353.369,124.214 C352.62,123.612 352.028,122.664 351.59,121.371 C351.422,120.876 351.292,120.284 351.181,119.643 C351.002,118.608 350.889,117.406 350.86,115.99 L350.667,106.868 C350.641,105.657 350.561,104.564 350.451,103.532 C348.752,98.793 344.234,95.388 338.926,95.388 C337.99,95.388 337.049,95.496 336.128,95.71 L326.489,97.951 L41.628,164.18 L27.674,167.424 C27.541,167.455 27.413,167.498 27.282,167.533 C21.906,168.969 18.181,173.776 18.181,179.378 L18.181,181.079 C18.088,182.307 18.047,183.612 18.077,185.019 L18.181,189.961 L18.181,197.164 C17.944,199.914 17.262,202.053 16.132,203.577 C14.645,205.613 11.919,207.149 7.947,208.181 L4.065,209.19 L4.236,217.298 L8.118,216.289 C10.23,215.74 11.953,215.502 13.284,215.584 C14.616,215.664 15.657,216.005 16.406,216.608 C17.153,217.208 17.744,218.154 18.181,219.442 L18.181,234.096 C18.181,236.281 18.76,238.33 19.763,240.109 C20.376,242.827 21.411,244.65 22.875,245.564 C24.38,246.485 26.815,246.747 30.167,246.359 C30.257,246.361 30.345,246.373 30.436,246.373 C31.372,246.373 32.313,246.265 33.234,246.051 L328.165,177.48 L328.169,177.675 L334.503,176.025 C334.646,175.988 334.773,175.948 334.913,175.91 C341.63,174.12 346.156,171.897 348.458,169.237 C349.742,167.723 350.631,165.631 351.155,163.003 C351.566,160.94 351.757,158.554 351.699,155.803 L351.506,146.677 C351.417,142.433 352.129,139.287 353.643,137.245 C355.13,135.209 357.856,133.673 361.827,132.641 L365.709,131.632 L365.539,123.524 z M344.942,134.304 C343.701,135.252 342.726,136.316 342.014,137.497 C340.675,139.752 340.055,143.212 340.153,147.881 L340.337,156.582 C340.422,160.629 339.969,163.392 338.982,164.873 C337.995,166.354 336.035,167.475 333.108,168.236 L327.998,169.567 L328.089,173.904 L43.227,240.134 L43.125,235.305 L38.015,236.633 C36.664,236.986 35.465,237.155 34.418,237.143 C33.369,237.131 32.572,236.868 32.023,236.358 C31.012,235.368 30.463,232.894 30.381,228.932 L30.194,220.064 C30.095,215.395 29.337,212.291 27.919,210.755 C26.713,209.405 24.631,208.8 21.682,208.931 L21.682,208.464 C22.852,207.882 23.902,207.234 24.834,206.52 C26.075,205.572 27.05,204.508 27.762,203.327 C29.101,201.072 29.721,197.612 29.623,192.943 L29.439,184.242 C29.354,180.195 29.807,177.432 30.794,175.951 C31.781,174.47 33.74,173.349 36.668,172.588 L41.778,171.257 L41.704,167.757 L326.566,101.527 L326.651,105.519 L331.761,104.191 C333.112,103.838 334.311,103.669 335.358,103.681 C336.407,103.693 337.205,103.956 337.754,104.466 C338.764,105.456 339.314,107.93 339.396,111.892 L339.583,120.76 C339.682,125.429 340.44,128.533 341.858,130.069 C343.006,131.354 344.954,131.958 347.681,131.902 L347.681,132.581 C346.679,133.106 345.76,133.677 344.942,134.304 z" fill="#FFFFFF"/>
      </g>
    </g>
    <g>
      <path d="M71.814,213.942 Q68.235,214.765 65.482,214.214 Q62.728,213.663 60.824,211.707 Q57.039,207.814 57.104,198.799 Q57.169,189.784 61.023,184.109 Q62.961,181.27 65.732,179.447 Q68.503,177.625 72.081,176.801 Q73.162,176.553 74.134,176.437 Q75.106,176.321 76.041,176.321 Q77.935,176.316 79.538,176.809 L79.482,184.673 Q78.408,183.915 77.559,183.548 Q76.711,183.18 75.945,183.022 Q75.035,182.824 74.16,182.846 Q73.284,182.868 72.396,183.072 Q68.553,183.957 66.537,187.484 Q64.521,191.06 64.478,197.102 Q64.434,203.144 66.406,205.755 Q68.353,208.395 72.22,207.505 Q74.069,207.079 75.804,205.89 Q76.647,205.313 77.48,204.559 Q78.313,203.805 79.352,202.632 L79.296,210.497 Q77.584,211.752 75.756,212.604 Q74.842,213.03 73.868,213.361 Q72.895,213.693 71.814,213.942 z" fill="#FFFFFF"/>
      <path d="M97.176,208.105 Q95.735,208.437 94.367,208.608 Q92.999,208.779 91.633,208.759 Q88.9,208.741 86.459,208.058 L86.511,200.745 Q87.993,201.458 89.309,201.873 Q90.624,202.288 91.99,202.477 Q94.649,202.846 97.171,202.266 Q98.54,201.951 99.55,201.419 Q100.561,200.887 101.286,200.122 Q102.736,198.616 102.751,196.482 Q102.763,194.851 101.811,193.874 Q101.311,193.366 100.606,193.062 Q99.901,192.757 99.038,192.62 L95.565,192.103 Q92.811,191.684 91.041,191.026 Q89.272,190.368 88.343,189.48 Q86.461,187.711 86.489,183.899 Q86.524,179.007 89.666,175.532 Q92.832,172.026 98.236,170.783 Q99.533,170.484 100.805,170.335 Q102.077,170.186 103.204,170.19 Q104.331,170.194 105.589,170.324 Q106.847,170.453 108.092,170.741 L108.042,177.646 Q105.796,176.56 103.424,176.267 Q101.052,175.975 98.747,176.506 Q96.177,177.097 94.824,178.438 Q93.448,179.808 93.434,181.678 Q93.424,183.189 94.425,183.916 Q94.902,184.285 95.847,184.57 Q96.792,184.855 98.565,185.117 L101.607,185.566 Q105.942,186.197 107.942,188.274 Q109.964,190.418 109.935,194.542 Q109.896,199.84 106.659,203.243 Q103.397,206.674 97.176,208.105 z" fill="#FFFFFF"/>
      <path d="M126.79,201.291 Q125.349,201.623 123.981,201.794 Q122.613,201.965 121.247,201.944 Q118.513,201.927 116.073,201.244 L116.125,193.931 Q117.607,194.643 118.923,195.059 Q120.238,195.474 121.604,195.662 Q124.263,196.032 126.784,195.452 Q128.154,195.137 129.164,194.605 Q130.175,194.073 130.9,193.308 Q132.35,191.801 132.365,189.667 Q132.377,188.037 131.425,187.059 Q130.925,186.552 130.22,186.247 Q129.514,185.943 128.652,185.806 L125.179,185.289 Q122.425,184.869 120.655,184.211 Q118.885,183.553 117.957,182.666 Q116.075,180.897 116.103,177.084 Q116.138,172.193 119.28,168.717 Q122.446,165.212 127.85,163.968 Q129.147,163.67 130.419,163.521 Q131.691,163.372 132.818,163.376 Q133.945,163.38 135.203,163.509 Q136.461,163.639 137.706,163.927 L137.656,170.832 Q135.41,169.745 133.038,169.453 Q130.666,169.161 128.361,169.692 Q125.791,170.283 124.438,171.623 Q123.062,172.993 123.048,174.864 Q123.037,176.374 124.039,177.101 Q124.516,177.47 125.461,177.755 Q126.406,178.041 128.179,178.303 L131.221,178.752 Q135.556,179.382 137.555,181.459 Q139.578,183.603 139.548,187.727 Q139.51,193.026 136.273,196.428 Q133.011,199.86 126.79,201.291 z" fill="#FFFFFF"/>
      <path d="M145.978,160.443 L153.568,158.697 Q162.358,156.674 166.195,159.956 Q168.078,161.582 169.038,164.748 Q169.998,167.914 169.963,172.781 Q169.895,182.252 165.998,187.362 Q162.101,192.472 153.31,194.494 L145.72,196.241 z M154.773,187.79 Q158.952,186.829 160.748,183.782 Q162.545,180.736 162.59,174.454 Q162.635,168.22 160.877,165.991 Q159.142,163.781 154.939,164.749 L153.018,165.191 L152.852,188.233 z" fill="#FFFFFF"/>
      <path d="M182.773,151.976 L191.444,149.981 L200.865,183.552 L193.78,185.182 L191.634,176.843 L182.147,179.026 L179.922,188.371 L172.837,190.001 z M190.307,171.332 L187.05,157.455 L183.606,172.873 z" fill="#FFFFFF"/>
      <path d="M213.024,166.679 L202.108,147.527 L209.745,145.77 L216.607,158.553 L223.7,142.559 L231.337,140.801 L220.109,165.048 L220.007,179.147 L212.922,180.777 z" fill="#FFFFFF"/>
      <path d="M245.963,174.179 Q245.027,174.395 244.308,174.237 Q243.59,174.079 242.994,173.618 Q241.754,172.659 241.768,170.764 Q241.782,168.798 243.04,167.264 Q244.274,165.759 246.051,165.35 Q246.916,165.151 247.682,165.274 Q248.448,165.397 249.068,165.877 Q250.284,166.818 250.27,168.808 Q250.256,170.726 249.023,172.231 Q247.765,173.765 245.963,174.179 z" fill="#FFFFFF"/>
      <path d="M271.934,137.205 Q271.213,137.37 271.219,136.651 L271.267,129.89 Q271.272,129.17 271.993,129.005 L277.589,127.717 Q278.31,127.551 278.304,128.27 L278.256,135.032 Q278.251,135.751 277.53,135.917 z M280.386,165.54 Q275.366,166.695 273.199,164.609 Q271.032,162.546 271.076,156.504 L271.152,145.954 L265.459,147.264 L265.498,141.869 L278.228,138.94 L278.113,154.885 Q278.09,158.026 279.065,159.142 Q280.017,160.24 282.394,159.692 L288.014,158.399 L287.976,163.794 z" fill="#FFFFFF"/>
      <path d="M305.314,160.211 Q302.239,160.919 299.989,160.395 Q297.739,159.872 296.238,158.518 Q294.57,157.01 293.749,154.566 Q292.927,152.122 292.95,148.957 Q292.973,145.744 293.844,142.947 Q294.716,140.149 296.387,137.897 Q298.057,135.646 300.358,134.159 Q302.658,132.672 305.492,132.02 Q308.447,131.34 310.721,131.81 Q312.996,132.28 314.568,133.69 Q316.141,135.099 317.011,137.472 Q317.881,139.845 317.856,143.25 Q317.833,146.463 316.974,149.246 Q316.115,152.029 314.444,154.304 Q312.846,156.467 310.545,158.002 Q308.244,159.537 305.314,160.211 z M305.331,154.51 Q307.876,153.924 309.333,151.387 Q310.791,148.826 310.819,144.845 Q310.848,140.913 309.422,139.015 Q308.686,138.035 307.681,137.74 Q306.676,137.445 305.451,137.726 Q304.106,138.036 303.129,138.847 Q302.153,139.658 301.473,140.844 Q300.015,143.406 299.987,147.338 Q299.959,151.318 301.384,153.216 Q302.809,155.091 305.331,154.51 z" fill="#FFFFFF"/>
    </g>
  </g>
  <g id="Layer_2">
    <path d="M83.691,299.089 C84.17,299.089 84.629,299.029 85.067,298.909 C85.504,298.789 85.891,298.597 86.227,298.333 C86.562,298.07 86.832,297.737 87.036,297.335 C87.24,296.933 87.342,296.451 87.342,295.887 C87.33,294.976 87.054,294.266 86.514,293.756 C85.975,293.246 85.093,292.991 83.871,292.991 L78.888,292.991 L78.888,299.089 L83.691,299.089 z M78.529,305.474 L78.529,292.632 L83.78,292.632 C85.123,292.632 86.107,292.899 86.73,293.432 C87.354,293.966 87.677,294.796 87.702,295.923 C87.725,296.787 87.498,297.503 87.018,298.073 C86.538,298.642 85.849,299.029 84.95,299.233 L84.95,299.269 C85.489,299.341 85.927,299.47 86.263,299.655 C86.598,299.841 86.856,300.084 87.036,300.384 C87.216,300.684 87.336,301.037 87.396,301.445 C87.456,301.853 87.486,302.314 87.486,302.83 C87.486,303.01 87.491,303.235 87.504,303.505 C87.515,303.774 87.533,304.041 87.558,304.305 C87.582,304.569 87.612,304.808 87.648,305.024 C87.684,305.24 87.731,305.39 87.791,305.474 L87.396,305.474 C87.336,305.342 87.288,305.165 87.252,304.943 C87.216,304.722 87.189,304.485 87.171,304.233 C87.153,303.981 87.141,303.726 87.135,303.468 C87.129,303.211 87.126,302.98 87.126,302.776 C87.126,302.248 87.087,301.778 87.009,301.364 C86.931,300.95 86.772,300.603 86.533,300.321 C86.293,300.039 85.951,299.823 85.507,299.673 C85.063,299.524 84.47,299.448 83.727,299.448 L78.888,299.448 L78.888,305.474 L78.529,305.474" fill="#FFFFFF"/>
    <path d="M98.295,305.114 L98.295,305.474 L89.698,305.474 L89.698,292.632 L98.223,292.632 L98.223,292.991 L90.057,292.991 L90.057,298.603 L97.737,298.603 L97.737,298.963 L90.057,298.963 L90.057,305.114 L98.295,305.114" fill="#FFFFFF"/>
    <path d="M109.86,302.587 C109.56,303.241 109.173,303.801 108.7,304.269 C108.226,304.736 107.666,305.102 107.018,305.366 C106.37,305.629 105.639,305.761 104.824,305.761 C103.972,305.761 103.19,305.597 102.476,305.267 C101.763,304.937 101.152,304.482 100.642,303.9 C100.132,303.318 99.734,302.623 99.446,301.814 C99.158,301.004 99.014,300.12 99.014,299.161 C99.014,298.381 99.125,297.587 99.347,296.778 C99.569,295.968 99.92,295.234 100.399,294.574 C100.878,293.915 101.502,293.375 102.27,292.956 C103.037,292.536 103.966,292.326 105.058,292.326 C105.909,292.326 106.652,292.467 107.288,292.749 C107.923,293.031 108.454,293.384 108.879,293.81 C109.305,294.236 109.626,294.688 109.842,295.168 C110.058,295.648 110.171,296.085 110.183,296.481 L109.824,296.481 C109.788,296.013 109.65,295.554 109.41,295.105 C109.17,294.655 108.844,294.25 108.43,293.891 C108.016,293.531 107.524,293.241 106.955,293.018 C106.385,292.797 105.753,292.686 105.058,292.686 C104.002,292.686 103.112,292.899 102.387,293.324 C101.661,293.75 101.076,294.284 100.633,294.925 C100.189,295.567 99.869,296.265 99.671,297.02 C99.473,297.776 99.374,298.489 99.374,299.161 C99.374,299.976 99.494,300.761 99.734,301.517 C99.974,302.272 100.327,302.938 100.795,303.513 C101.263,304.089 101.835,304.55 102.513,304.898 C103.19,305.246 103.96,305.42 104.824,305.42 C105.591,305.42 106.281,305.294 106.892,305.042 C107.504,304.79 108.031,304.443 108.475,303.999 C108.918,303.555 109.278,303.028 109.554,302.416 C109.83,301.804 110.015,301.146 110.111,300.438 L110.471,300.438 C110.363,301.217 110.159,301.934 109.86,302.587" fill="#FFFFFF"/>
    <path d="M117.198,299.089 C117.677,299.089 118.136,299.029 118.574,298.909 C119.012,298.789 119.398,298.597 119.734,298.333 C120.07,298.07 120.339,297.737 120.543,297.335 C120.747,296.933 120.849,296.451 120.849,295.887 C120.837,294.976 120.562,294.266 120.022,293.756 C119.482,293.246 118.601,292.991 117.378,292.991 L112.396,292.991 L112.396,299.089 L117.198,299.089 z M112.036,305.474 L112.036,292.632 L117.288,292.632 C118.631,292.632 119.614,292.899 120.238,293.432 C120.861,293.966 121.185,294.796 121.209,295.923 C121.233,296.787 121.005,297.503 120.525,298.073 C120.046,298.642 119.356,299.029 118.457,299.233 L118.457,299.269 C118.996,299.341 119.434,299.47 119.77,299.655 C120.105,299.841 120.364,300.084 120.543,300.384 C120.723,300.684 120.843,301.037 120.903,301.445 C120.963,301.853 120.993,302.314 120.993,302.83 C120.993,303.01 120.999,303.235 121.011,303.505 C121.023,303.774 121.041,304.041 121.065,304.305 C121.089,304.569 121.119,304.808 121.155,305.024 C121.191,305.24 121.239,305.39 121.299,305.474 L120.903,305.474 C120.843,305.342 120.795,305.165 120.759,304.943 C120.723,304.722 120.696,304.485 120.678,304.233 C120.66,303.981 120.648,303.726 120.642,303.468 C120.636,303.211 120.633,302.98 120.633,302.776 C120.633,302.248 120.594,301.778 120.516,301.364 C120.438,300.95 120.279,300.603 120.04,300.321 C119.8,300.039 119.458,299.823 119.014,299.673 C118.571,299.524 117.977,299.448 117.234,299.448 L112.396,299.448 L112.396,305.474 L112.036,305.474" fill="#FFFFFF"/>
    <path d="M132.63,292.632 L132.63,300.689 C132.63,302.416 132.228,303.693 131.425,304.52 C130.621,305.348 129.452,305.761 127.917,305.761 C126.382,305.761 125.214,305.348 124.41,304.52 C123.607,303.693 123.205,302.416 123.205,300.689 L123.205,292.632 L123.565,292.632 L123.565,300.689 C123.565,302.236 123.918,303.411 124.626,304.215 C125.333,305.018 126.431,305.42 127.917,305.42 C129.404,305.42 130.501,305.018 131.209,304.215 C131.916,303.411 132.27,302.236 132.27,300.689 L132.27,292.632 L132.63,292.632" fill="#FFFFFF"/>
    <path d="M134.752,292.632 L135.112,292.632 L135.112,305.474 L134.752,305.474 z" fill="#FFFFFF"/>
    <path d="M135.975,292.632 L145.561,292.632 L145.561,292.991 L140.939,292.991 L140.939,305.474 L140.579,305.474 L140.579,292.991 L135.975,292.991 L135.975,292.632" fill="#FFFFFF"/>
    <path d="M146.407,292.632 L146.766,292.632 L146.766,305.474 L146.407,305.474 z" fill="#FFFFFF"/>
    <path d="M149.428,292.632 L158.205,305.024 L158.241,305.024 L158.241,292.632 L158.601,292.632 L158.601,305.474 L158.061,305.474 L149.284,293.082 L149.248,293.082 L149.248,305.474 L148.888,305.474 L148.888,292.632 L149.428,292.632" fill="#FFFFFF"/>
    <path d="M166.533,299.466 L171.874,299.466 L171.874,305.474 L171.515,305.474 L171.515,302.29 L171.479,302.29 C171.131,303.381 170.508,304.233 169.608,304.844 C168.709,305.456 167.623,305.761 166.353,305.761 C165.369,305.761 164.5,305.585 163.745,305.231 C162.989,304.878 162.36,304.398 161.856,303.792 C161.353,303.187 160.972,302.476 160.714,301.661 C160.456,300.846 160.328,299.976 160.328,299.053 C160.328,298.117 160.465,297.239 160.741,296.418 C161.017,295.597 161.412,294.883 161.928,294.278 C162.444,293.672 163.073,293.195 163.817,292.848 C164.56,292.5 165.406,292.326 166.353,292.326 C167.072,292.326 167.734,292.428 168.34,292.632 C168.946,292.836 169.479,293.126 169.941,293.504 C170.402,293.882 170.78,294.335 171.074,294.862 C171.368,295.39 171.569,295.983 171.676,296.643 L171.317,296.643 C171.209,296.043 171.014,295.5 170.732,295.015 C170.45,294.529 170.097,294.113 169.671,293.765 C169.245,293.417 168.754,293.15 168.196,292.965 C167.639,292.779 167.024,292.686 166.353,292.686 C165.454,292.686 164.653,292.854 163.952,293.189 C163.25,293.525 162.657,293.981 162.171,294.556 C161.686,295.132 161.317,295.807 161.065,296.58 C160.813,297.353 160.687,298.178 160.687,299.053 C160.687,299.928 160.807,300.752 161.047,301.526 C161.287,302.299 161.646,302.974 162.126,303.549 C162.606,304.125 163.202,304.581 163.916,304.916 C164.629,305.252 165.459,305.42 166.407,305.42 C167.114,305.42 167.78,305.297 168.403,305.051 C169.026,304.805 169.569,304.464 170.031,304.026 C170.492,303.588 170.855,303.067 171.119,302.461 C171.382,301.856 171.515,301.199 171.515,300.492 L171.515,299.826 L166.533,299.826 L166.533,299.466" fill="#FFFFFF"/>
    <path d="M87.558,310.618 L82.665,323.46 L82.27,323.46 L77.252,310.618 L77.593,310.618 L82.45,322.992 L82.486,322.992 L87.198,310.618 L87.558,310.618" fill="#FFFFFF"/>
    <path d="M96.982,323.1 L96.982,323.46 L88.385,323.46 L88.385,310.618 L96.91,310.618 L96.91,310.977 L88.745,310.977 L88.745,316.589 L96.424,316.589 L96.424,316.949 L88.745,316.949 L88.745,323.1 L96.982,323.1" fill="#FFFFFF"/>
    <path d="M98.763,310.618 L107.54,323.01 L107.576,323.01 L107.576,310.618 L107.935,310.618 L107.935,323.46 L107.396,323.46 L98.619,311.068 L98.583,311.068 L98.583,323.46 L98.223,323.46 L98.223,310.618 L98.763,310.618" fill="#FFFFFF"/>
    <path d="M108.799,310.618 L118.385,310.618 L118.385,310.977 L113.763,310.977 L113.763,323.46 L113.403,323.46 L113.403,310.977 L108.799,310.977 L108.799,310.618" fill="#FFFFFF"/>
    <path d="M128.655,310.618 L128.655,318.675 C128.655,320.402 128.253,321.679 127.45,322.506 C126.646,323.334 125.477,323.747 123.943,323.747 C122.408,323.747 121.239,323.334 120.436,322.506 C119.632,321.679 119.23,320.402 119.23,318.675 L119.23,310.618 L119.59,310.618 L119.59,318.675 C119.59,320.222 119.944,321.397 120.651,322.201 C121.359,323.004 122.456,323.406 123.943,323.406 C125.429,323.406 126.527,323.004 127.234,322.201 C127.942,321.397 128.295,320.222 128.295,318.675 L128.295,310.618 L128.655,310.618" fill="#FFFFFF"/>
    <path d="M135.939,317.075 C136.418,317.075 136.877,317.015 137.315,316.895 C137.753,316.775 138.139,316.583 138.475,316.319 C138.811,316.056 139.081,315.723 139.284,315.321 C139.488,314.919 139.59,314.437 139.59,313.873 C139.578,312.962 139.303,312.252 138.763,311.742 C138.223,311.232 137.342,310.977 136.119,310.977 L131.137,310.977 L131.137,317.075 L135.939,317.075 z M130.777,323.46 L130.777,310.618 L136.029,310.618 C137.372,310.618 138.355,310.885 138.979,311.418 C139.602,311.952 139.926,312.782 139.95,313.909 C139.974,314.772 139.746,315.489 139.266,316.059 C138.787,316.628 138.097,317.015 137.198,317.219 L137.198,317.255 C137.738,317.327 138.175,317.455 138.511,317.641 C138.847,317.827 139.105,318.07 139.284,318.37 C139.464,318.67 139.584,319.023 139.644,319.431 C139.704,319.839 139.734,320.3 139.734,320.816 C139.734,320.996 139.74,321.22 139.752,321.49 C139.764,321.76 139.782,322.027 139.806,322.29 C139.83,322.555 139.86,322.794 139.896,323.01 C139.932,323.226 139.98,323.376 140.04,323.46 L139.644,323.46 C139.584,323.328 139.536,323.151 139.5,322.929 C139.464,322.708 139.438,322.47 139.419,322.219 C139.401,321.967 139.389,321.712 139.384,321.454 C139.377,321.197 139.375,320.966 139.375,320.762 C139.375,320.234 139.335,319.764 139.258,319.35 C139.179,318.936 139.021,318.589 138.781,318.307 C138.541,318.025 138.199,317.809 137.756,317.659 C137.312,317.509 136.719,317.434 135.975,317.434 L131.137,317.434 L131.137,323.46 L130.777,323.46" fill="#FFFFFF"/>
    <path d="M150.544,323.1 L150.544,323.46 L141.946,323.46 L141.946,310.618 L150.472,310.618 L150.472,310.977 L142.306,310.977 L142.306,316.589 L149.986,316.589 L149.986,316.949 L142.306,316.949 L142.306,323.1 L150.544,323.1" fill="#FFFFFF"/>
    <path d="M159.995,312.551 C159.773,312.102 159.479,311.736 159.114,311.454 C158.748,311.172 158.313,310.972 157.81,310.852 C157.306,310.732 156.767,310.672 156.191,310.672 C155.747,310.672 155.286,310.717 154.806,310.807 C154.326,310.896 153.891,311.056 153.502,311.283 C153.112,311.511 152.792,311.814 152.54,312.192 C152.288,312.569 152.162,313.046 152.162,313.621 C152.162,314.197 152.291,314.659 152.549,315.006 C152.806,315.354 153.142,315.636 153.556,315.852 C153.97,316.068 154.44,316.236 154.968,316.355 C155.495,316.475 156.035,316.601 156.587,316.733 C157.186,316.889 157.753,317.039 158.286,317.183 C158.82,317.327 159.284,317.518 159.68,317.758 C160.076,317.998 160.391,318.316 160.624,318.712 C160.858,319.107 160.975,319.641 160.975,320.312 C160.975,320.924 160.843,321.445 160.58,321.877 C160.316,322.309 159.968,322.666 159.536,322.947 C159.105,323.229 158.619,323.433 158.08,323.559 C157.54,323.685 156.994,323.747 156.443,323.747 C155.711,323.747 155.037,323.664 154.419,323.496 C153.802,323.328 153.268,323.061 152.819,322.695 C152.369,322.33 152.021,321.859 151.775,321.284 C151.53,320.708 151.412,320.012 151.425,319.197 L151.784,319.197 C151.784,319.965 151.898,320.615 152.126,321.149 C152.354,321.682 152.675,322.117 153.088,322.453 C153.502,322.788 153.994,323.031 154.563,323.181 C155.132,323.331 155.759,323.406 156.443,323.406 C156.946,323.406 157.447,323.349 157.945,323.235 C158.442,323.121 158.889,322.938 159.284,322.686 C159.68,322.435 160.001,322.111 160.247,321.715 C160.493,321.319 160.615,320.846 160.615,320.294 C160.615,319.647 160.474,319.134 160.193,318.756 C159.911,318.379 159.551,318.079 159.114,317.857 C158.676,317.635 158.19,317.468 157.657,317.353 C157.123,317.24 156.61,317.123 156.119,317.003 C155.603,316.883 155.088,316.757 154.572,316.625 C154.056,316.493 153.592,316.31 153.178,316.077 C152.764,315.843 152.432,315.531 152.18,315.141 C151.928,314.752 151.802,314.245 151.802,313.621 C151.802,312.986 151.934,312.455 152.198,312.03 C152.462,311.604 152.804,311.265 153.223,311.014 C153.643,310.761 154.114,310.582 154.635,310.474 C155.157,310.366 155.675,310.312 156.191,310.312 C156.826,310.312 157.411,310.381 157.945,310.519 C158.478,310.657 158.946,310.879 159.347,311.184 C159.749,311.49 160.07,311.892 160.31,312.389 C160.549,312.887 160.687,313.496 160.724,314.215 L160.364,314.215 C160.339,313.556 160.217,313.001 159.995,312.551" fill="#FFFFFF"/>
    <path d="M54.227,301.789 C53.706,301.337 52.925,301.145 51.884,301.145 L46.173,301.145 L46.173,307.141 L51.884,307.141 C52.925,307.141 53.706,306.741 54.227,306.279 C54.747,305.816 55.007,304.979 55.007,303.938 C55.007,302.936 54.747,302.244 54.227,301.789" fill="#FFFFFF"/>
    <path d="M55.614,318.382 C55.364,317.632 55.21,316.812 55.152,315.904 C55.094,314.999 55.007,314.063 54.892,313.234 C54.737,312.154 54.41,311.378 53.908,310.877 C53.407,310.375 52.588,310.138 51.45,310.138 L46.173,310.138 L46.173,318.382 L41.676,318.382 L41.676,297.773 L53.503,297.773 C54.429,297.773 55.263,297.767 56.005,298.067 C56.747,298.366 57.383,298.697 57.914,299.217 C58.444,299.738 58.849,300.302 59.128,300.986 C59.408,301.671 59.548,302.39 59.548,303.179 C59.548,304.394 58.922,305.436 58.412,306.322 C57.901,307.21 56.664,307.874 55.54,308.337 L55.54,308.395 C56.29,308.55 56.932,308.785 57.298,309.103 C57.664,309.421 58.148,309.797 58.38,310.231 C58.611,310.665 58.872,311.142 58.978,311.663 C59.084,312.183 59.203,312.704 59.241,313.225 C59.26,313.553 59.303,313.938 59.322,314.382 C59.341,314.825 59.386,315.278 59.435,315.741 C59.483,316.204 59.566,316.777 59.672,317.191 C59.778,317.606 59.943,318.007 60.155,318.382 L55.614,318.382 z M66.735,318.382 L60.054,297.773 L64.71,297.773 L69.308,312.012 L69.366,312.012 L73.714,297.773 L73.714,288.78 L35.306,288.78 L35.306,327 L73.714,327 L73.714,310.77 L71.854,318.382 L66.735,318.382" fill="#FFFFFF"/>
    <path d="M35.306,276.578 L37.285,276.578 Q38.415,276.578 39.005,277.091 Q39.309,277.358 39.449,277.742 Q39.59,278.125 39.59,278.606 Q39.59,279.605 39.009,280.118 Q38.723,280.372 38.292,280.501 Q37.861,280.63 37.285,280.63 L36.223,280.63 L36.223,283.353 L35.306,283.353 z M37.285,279.877 Q37.625,279.877 37.87,279.786 Q38.115,279.696 38.279,279.541 Q38.633,279.21 38.633,278.602 Q38.633,277.998 38.279,277.662 Q37.929,277.331 37.285,277.331 L36.223,277.331 L36.223,279.877 z" fill="#FFFFFF"/>
    <path d="M41.492,278.271 L42.25,278.271 L42.331,279.264 Q42.545,278.724 42.976,278.434 Q43.402,278.148 43.997,278.148 Q44.305,278.148 44.578,278.225 Q44.709,278.262 44.841,278.323 Q44.973,278.384 45.091,278.466 L45.091,279.319 Q44.832,279.11 44.546,279.015 Q44.265,278.92 43.933,278.92 Q43.157,278.92 42.744,279.41 Q42.331,279.895 42.331,280.826 L42.331,283.353 L41.492,283.353 z" fill="#FFFFFF"/>
    <path d="M48.789,283.485 Q48.204,283.485 47.739,283.306 Q47.273,283.127 46.947,282.777 Q46.62,282.428 46.45,281.935 Q46.28,281.443 46.28,280.821 Q46.28,280.181 46.452,279.698 Q46.624,279.215 46.929,278.874 Q47.26,278.507 47.705,278.327 Q48.149,278.148 48.662,278.148 Q49.17,278.148 49.554,278.316 Q49.937,278.484 50.21,278.802 Q50.482,279.119 50.625,279.571 Q50.768,280.022 50.768,280.603 L50.768,281.012 L47.151,281.012 L47.151,281.039 Q47.151,281.869 47.587,282.323 Q47.795,282.541 48.093,282.659 Q48.39,282.777 48.803,282.777 Q49.216,282.777 49.642,282.65 Q50.083,282.518 50.573,282.264 L50.573,283.095 Q50.332,283.195 50.105,283.267 Q49.878,283.34 49.656,283.39 Q49.438,283.44 49.22,283.462 Q49.003,283.485 48.789,283.485 z M49.933,280.358 Q49.924,279.968 49.831,279.689 Q49.738,279.41 49.588,279.237 Q49.425,279.047 49.184,278.951 Q48.944,278.856 48.644,278.856 Q48.031,278.856 47.646,279.255 Q47.255,279.659 47.183,280.363 z" fill="#FFFFFF"/>
    <path d="M53.99,283.485 Q53.79,283.485 53.579,283.465 Q53.368,283.444 53.173,283.408 Q52.996,283.372 52.758,283.308 Q52.52,283.245 52.279,283.167 L52.279,282.305 Q52.57,282.45 52.774,282.53 Q52.978,282.609 53.173,282.664 Q53.382,282.723 53.577,282.754 Q53.772,282.786 53.981,282.786 Q54.53,282.786 54.839,282.559 Q54.998,282.441 55.07,282.282 Q55.143,282.124 55.143,281.96 Q55.143,281.643 54.875,281.445 Q54.607,281.248 54.031,281.13 L53.995,281.121 L53.682,281.057 Q53.341,280.989 53.076,280.876 Q52.81,280.762 52.629,280.581 Q52.297,280.249 52.297,279.668 Q52.297,279.301 52.422,279.019 Q52.547,278.738 52.792,278.543 Q53.051,278.334 53.409,278.241 Q53.768,278.148 54.213,278.148 Q54.408,278.148 54.603,278.166 Q54.798,278.184 54.989,278.221 Q55.161,278.257 55.349,278.314 Q55.538,278.37 55.728,278.448 L55.728,279.264 Q55.365,279.056 55.007,278.951 Q54.825,278.901 54.641,278.874 Q54.458,278.847 54.249,278.847 Q53.986,278.847 53.775,278.892 Q53.564,278.938 53.423,279.029 Q53.141,279.215 53.141,279.596 Q53.141,279.755 53.194,279.886 Q53.246,280.018 53.35,280.1 Q53.455,280.181 53.697,280.261 Q53.94,280.34 54.39,280.426 L54.725,280.49 Q55.052,280.553 55.284,280.671 Q55.515,280.789 55.669,280.962 Q55.987,281.311 55.987,281.888 Q55.987,282.278 55.849,282.566 Q55.71,282.854 55.451,283.059 Q55.175,283.276 54.805,283.381 Q54.435,283.485 53.99,283.485 z" fill="#FFFFFF"/>
    <path d="M59.981,283.485 Q59.395,283.485 58.93,283.306 Q58.465,283.127 58.138,282.777 Q57.811,282.428 57.641,281.935 Q57.471,281.443 57.471,280.821 Q57.471,280.181 57.643,279.698 Q57.816,279.215 58.12,278.874 Q58.451,278.507 58.896,278.327 Q59.341,278.148 59.854,278.148 Q60.362,278.148 60.745,278.316 Q61.129,278.484 61.401,278.802 Q61.673,279.119 61.816,279.571 Q61.959,280.022 61.959,280.603 L61.959,281.012 L58.342,281.012 L58.342,281.039 Q58.342,281.869 58.778,282.323 Q58.987,282.541 59.284,282.659 Q59.581,282.777 59.994,282.777 Q60.407,282.777 60.834,282.65 Q61.274,282.518 61.764,282.264 L61.764,283.095 Q61.524,283.195 61.297,283.267 Q61.07,283.34 60.847,283.39 Q60.63,283.44 60.412,283.462 Q60.194,283.485 59.981,283.485 z M61.124,280.358 Q61.115,279.968 61.022,279.689 Q60.929,279.41 60.779,279.237 Q60.616,279.047 60.376,278.951 Q60.135,278.856 59.835,278.856 Q59.223,278.856 58.837,279.255 Q58.447,279.659 58.374,280.363 z" fill="#FFFFFF"/>
    <path d="M63.389,278.271 L64.142,278.271 L64.224,279.033 Q64.451,278.593 64.828,278.37 Q65.204,278.148 65.726,278.148 Q66.135,278.148 66.421,278.28 Q66.706,278.411 66.892,278.656 Q67.274,279.169 67.274,280.204 L67.274,283.353 L66.434,283.353 L66.434,280.204 Q66.434,279.519 66.194,279.196 Q65.953,278.874 65.436,278.874 Q65.136,278.874 64.916,278.979 Q64.696,279.083 64.542,279.287 Q64.224,279.7 64.224,280.481 L64.224,283.353 L63.389,283.353 z" fill="#FFFFFF"/>
    <path d="M71.762,283.372 Q70.827,283.372 70.437,282.995 Q70.051,282.623 70.051,281.697 L70.051,278.92 L68.694,278.92 L68.694,278.271 L70.051,278.271 L70.051,276.941 L70.886,276.578 L70.886,278.271 L72.783,278.271 L72.783,278.92 L70.886,278.92 L70.886,281.697 Q70.886,282.255 71.099,282.482 Q71.308,282.704 71.844,282.704 L72.783,282.704 L72.783,283.372 z" fill="#FFFFFF"/>
    <path d="M76.768,283.485 Q76.182,283.485 75.717,283.306 Q75.252,283.127 74.925,282.777 Q74.599,282.428 74.428,281.935 Q74.258,281.443 74.258,280.821 Q74.258,280.181 74.431,279.698 Q74.603,279.215 74.907,278.874 Q75.238,278.507 75.683,278.327 Q76.128,278.148 76.641,278.148 Q77.149,278.148 77.533,278.316 Q77.916,278.484 78.188,278.802 Q78.461,279.119 78.604,279.571 Q78.747,280.022 78.747,280.603 L78.747,281.012 L75.129,281.012 L75.129,281.039 Q75.129,281.869 75.565,282.323 Q75.774,282.541 76.071,282.659 Q76.368,282.777 76.781,282.777 Q77.194,282.777 77.621,282.65 Q78.061,282.518 78.551,282.264 L78.551,283.095 Q78.311,283.195 78.084,283.267 Q77.857,283.34 77.635,283.39 Q77.417,283.44 77.199,283.462 Q76.981,283.485 76.768,283.485 z M77.911,280.358 Q77.902,279.968 77.809,279.689 Q77.716,279.41 77.567,279.237 Q77.403,279.047 77.163,278.951 Q76.922,278.856 76.623,278.856 Q76.01,278.856 75.624,279.255 Q75.234,279.659 75.161,280.363 z" fill="#FFFFFF"/>
    <path d="M81.828,283.485 Q81.347,283.485 80.984,283.294 Q80.621,283.104 80.376,282.768 Q80.113,282.41 79.981,281.913 Q79.849,281.416 79.849,280.803 Q79.849,280.199 79.979,279.702 Q80.108,279.205 80.376,278.852 Q80.644,278.497 81.016,278.323 Q81.388,278.148 81.828,278.148 Q82.291,278.148 82.636,278.343 Q82.985,278.543 83.185,278.92 L83.185,276.292 L84.02,276.292 L84.02,283.353 L83.267,283.353 L83.185,282.714 Q83.081,282.895 82.949,283.038 Q82.817,283.181 82.631,283.285 Q82.286,283.485 81.828,283.485 z M81.946,282.777 Q82.559,282.777 82.872,282.278 Q83.185,281.783 83.185,280.817 Q83.185,279.85 82.872,279.351 Q82.727,279.119 82.5,278.988 Q82.273,278.856 81.951,278.856 Q81.342,278.856 81.038,279.351 Q80.73,279.85 80.73,280.817 Q80.73,281.783 81.038,282.282 Q81.197,282.541 81.429,282.659 Q81.66,282.777 81.946,282.777 z" fill="#FFFFFF"/>
    <path d="M91.236,276.578 L93.242,276.578 Q94.277,276.578 94.844,277.027 Q95.407,277.476 95.407,278.302 Q95.407,278.62 95.329,278.863 Q95.252,279.106 95.112,279.278 Q94.966,279.451 94.744,279.566 Q94.522,279.682 94.218,279.727 Q94.889,279.832 95.266,280.295 Q95.452,280.526 95.547,280.826 Q95.643,281.125 95.643,281.497 Q95.643,282.414 95.039,282.882 Q94.431,283.353 93.242,283.353 L91.236,283.353 z M93.224,279.373 Q93.569,279.373 93.802,279.31 Q94.036,279.246 94.186,279.115 Q94.481,278.861 94.481,278.311 Q94.481,278.039 94.408,277.855 Q94.336,277.672 94.19,277.558 Q93.895,277.331 93.224,277.331 L92.157,277.331 L92.157,279.373 z M93.242,282.6 Q94.036,282.6 94.381,282.319 Q94.721,282.042 94.721,281.402 Q94.721,280.739 94.363,280.426 Q94,280.118 93.242,280.118 L92.157,280.118 L92.157,282.6 z" fill="#FFFFFF"/>
    <path d="M96.913,284.588 L97.408,284.588 Q97.612,284.588 97.753,284.527 Q97.894,284.465 97.984,284.375 Q98.084,284.27 98.211,284.016 Q98.338,283.762 98.515,283.272 L96.55,278.271 L97.435,278.271 L98.942,282.246 L100.426,278.271 L101.311,278.271 L99.972,281.72 Q99.863,282.001 99.802,282.155 Q99.741,282.31 99.707,282.398 Q99.673,282.487 99.654,282.534 Q99.636,282.582 99.614,282.646 Q99.591,282.709 99.552,282.813 Q99.514,282.918 99.441,283.117 Q99.305,283.485 99.207,283.735 Q99.11,283.984 99.037,284.15 Q98.965,284.316 98.917,284.413 Q98.869,284.511 98.838,284.57 Q98.738,284.742 98.615,284.876 Q98.493,285.01 98.316,285.11 Q98.002,285.287 97.585,285.287 L96.913,285.287 z" fill="#FFFFFF"/>
  </g>
</svg>
